<svg id="a6dd78f5-1bd1-4518-add8-796d8c0ad18d" data-name="Layer 1" xmlns="http://www.w3.org/2000/svg" viewBox="0 0 1080 1080"><defs><style>.aa403877-7e0e-4fbe-9055-29ce23969e44{fill:#ffd100;}</style></defs><rect class="aa403877-7e0e-4fbe-9055-29ce23969e44" width="1080" height="1080" rx="204.29"/><path d="M357.86,613.34c.38,81.76,28.87,152.36,87.61,209.19,58.31,56.41,130,81.18,210.59,82,12.46.13,16.87-5.18,16.29-17.52-.84-18.08-1.36-36.3,0-54.32,1.16-15.36-4-18.37-18.85-18C518.41,818.51,416,685.34,455.18,556.4c34-112.1,152.79-175.71,269.28-129.35,16.89,6.72,18.36,11.23,9.44,27.5-3.33,6.08-7,12-10.07,18.18-3.42,6.89-9.38,13.82,1.68,20.18,10.84,6.22,15.26.16,19.81-8.14,7.78-14.2,12.84-31.09,33.13-33.32,2.74-.3,5.51-4.8,7.39-7.89q51.9-85.35,103.62-170.78c4.83-7.93,4-13.79-3.92-18.81-11.25-7.12-22.36-14.46-33.53-21.72-11-7.15-21.48-13.83-34.33-2.19-4.79,4.33-15,4.71-12.48-5.34,3.71-14.72-4.75-17.35-14.57-21.26-58-23.06-118.29-30.32-180.28-27.39-11.54.54-17.74,4.94-20.22,16-1,4.5-2,10.07-7.9,10.86s-8.44-4.13-10.35-8.42c-4.53-10.19-11.47-12.06-22-9.49-135.3,33-233.67,111.6-294,237.37-8.36,17.43-17.6,35.08-.13,52.87,2.54,2.59,3.64,6.71.55,10.21a5.87,5.87,0,0,1-7.34,1.43c-14-8.19-15.83,2-18.28,11.66-15.93,63.16-16.22,126.47-2.3,190,2.94,13.39,12.56,27.36,7.5,39.93-5.71,14.19-24.59,12.54-37.05,19.19-6.91,3.69-14,6-10.27,16.21C192.66,775,200,772.42,208,769.38c34.85-13.21,69.67-26.51,104.68-39.31,14.57-5.33,17.63-13.42,12.46-28.28-19.35-55.64-22.42-113.33-10.47-170.3C344.83,387.78,464.14,275.8,619.58,266.06,665.3,263.2,709.8,270.3,753,285.27c7.68,2.66,15.76,5.56,12.41,16.67-6.39,21.14-28.06,34.54-49.78,28.77-41-10.9-81.65-10.68-123.26-2.62C453.05,355.11,355.86,475.61,357.86,613.34Z"/></svg>